<svg width="2324" height="1417" xmlns="http://www.w3.org/2000/svg" xmlns:xlink="http://www.w3.org/1999/xlink" xml:space="preserve" overflow="hidden"><defs><clipPath id="clip0"><rect x="279" y="517" width="2324" height="1417"/></clipPath><clipPath id="clip1"><rect x="1725" y="1360" width="140" height="139"/></clipPath><clipPath id="clip2"><rect x="1725" y="1360" width="140" height="139"/></clipPath><clipPath id="clip3"><rect x="1725" y="1360" width="140" height="139"/></clipPath><clipPath id="clip4"><rect x="906" y="1360" width="137" height="139"/></clipPath><clipPath id="clip5"><rect x="906" y="1360" width="137" height="139"/></clipPath><clipPath id="clip6"><rect x="906" y="1360" width="137" height="139"/></clipPath><clipPath id="clip7"><rect x="1728" y="830" width="137" height="138"/></clipPath><clipPath id="clip8"><rect x="1728" y="830" width="137" height="138"/></clipPath><clipPath id="clip9"><rect x="1728" y="830" width="137" height="138"/></clipPath><clipPath id="clip10"><rect x="906" y="830" width="137" height="138"/></clipPath><clipPath id="clip11"><rect x="906" y="830" width="137" height="138"/></clipPath><clipPath id="clip12"><rect x="906" y="830" width="137" height="138"/></clipPath><clipPath id="clip13"><rect x="1205" y="963" width="165" height="165"/></clipPath><clipPath id="clip14"><rect x="1205" y="963" width="165" height="165"/></clipPath><clipPath id="clip15"><rect x="1205" y="963" width="165" height="165"/></clipPath><clipPath id="clip16"><rect x="2036" y="963" width="164" height="165"/></clipPath><clipPath id="clip17"><rect x="2036" y="963" width="164" height="165"/></clipPath><clipPath id="clip18"><rect x="2036" y="963" width="164" height="165"/></clipPath><clipPath id="clip19"><rect x="349" y="662" width="140" height="137"/></clipPath><clipPath id="clip20"><rect x="349" y="662" width="140" height="137"/></clipPath><clipPath id="clip21"><rect x="349" y="662" width="140" height="137"/></clipPath><clipPath id="clip22"><rect x="1204" y="1544" width="166" height="166"/></clipPath><clipPath id="clip23"><rect x="1204" y="1544" width="166" height="166"/></clipPath><clipPath id="clip24"><rect x="1204" y="1544" width="166" height="166"/></clipPath><clipPath id="clip25"><rect x="2036" y="1545" width="166" height="166"/></clipPath><clipPath id="clip26"><rect x="2036" y="1545" width="166" height="166"/></clipPath><clipPath id="clip27"><rect x="2036" y="1545" width="166" height="166"/></clipPath><clipPath id="clip28"><rect x="518" y="969" width="170" height="170"/></clipPath><clipPath id="clip29"><rect x="518" y="969" width="170" height="170"/></clipPath><clipPath id="clip30"><rect x="518" y="969" width="170" height="170"/></clipPath></defs><g clip-path="url(#clip0)" transform="translate(-279 -517)"><rect x="1728" y="1360" width="760" height="447" fill="#E2F0D9" fill-opacity="0.2"/><g clip-path="url(#clip1)"><g clip-path="url(#clip2)"><g clip-path="url(#clip3)"><path d="M0 0 137 0 137 137 0 137Z" fill="#6CAE3E" fill-rule="evenodd" fill-opacity="1" transform="matrix(1.0073 0 0 1 1726 1361)"/><path d="M66.9109 75.5179C70.6989 75.5179 73.7814 78.597 73.7814 82.385 73.7814 86.1731 70.6989 89.2556 66.9109 89.2556 63.1228 89.2556 60.0403 86.1731 60.0403 82.385 60.0403 78.597 63.1228 75.5179 66.9109 75.5179L66.9109 75.5179ZM65.1162 92.4991 65.1162 104.466 68.5412 104.466 68.5412 92.5162C73.4389 91.7285 77.2064 87.5054 77.2064 82.385 77.2064 76.7098 72.5861 72.0929 66.9109 72.0929 61.2356 72.0929 56.6153 76.7098 56.6153 82.385 56.6153 87.4472 60.2938 91.6428 65.1162 92.4991ZM34.25 113.073 99.3662 113.073 99.3662 61.6501 34.25 61.6501 34.25 113.073ZM48.1076 42.7578C48.1076 32.4005 56.5331 23.975 66.8869 23.975 77.2441 23.975 85.6662 32.4005 85.6662 42.7578L85.6662 58.2251 48.1076 58.2251 48.1076 42.7578ZM101.079 58.2251 89.0912 58.2251 89.0912 42.7578C89.0912 30.5099 79.1279 20.55 66.8869 20.55 54.6425 20.55 44.6826 30.5099 44.6826 42.7578L44.6826 58.2251 32.5375 58.2251C31.5888 58.2251 30.825 58.9923 30.825 59.9376L30.825 114.786C30.825 115.731 31.5888 116.498 32.5375 116.498L101.079 116.498C102.024 116.498 102.791 115.731 102.791 114.786L102.791 59.9376C102.791 58.9923 102.024 58.2251 101.079 58.2251Z" fill="#232F3E" fill-rule="evenodd" fill-opacity="1" transform="matrix(1.0073 0 0 1 1726 1361)"/></g></g></g><rect x="907" y="1360" width="761" height="447" fill="#E2F0D9" fill-opacity="0.2"/><g clip-path="url(#clip4)"><g clip-path="url(#clip5)"><g clip-path="url(#clip6)"><path d="M0 0 137 0 137 137 0 137Z" fill="#6CAE3E" fill-rule="evenodd" fill-opacity="1" transform="matrix(1 0 0 1 906 1361)"/><path d="M66.9107 75.5177C70.6988 75.5177 73.7812 78.5968 73.7812 82.3848 73.7812 86.1729 70.6988 89.2554 66.9107 89.2554 63.1227 89.2554 60.0402 86.1729 60.0402 82.3848 60.0402 78.5968 63.1227 75.5177 66.9107 75.5177L66.9107 75.5177ZM65.116 92.4988 65.116 104.466 68.541 104.466 68.541 92.516C73.4387 91.7282 77.2062 87.5052 77.2062 82.3848 77.2062 76.7096 72.5859 72.0927 66.9107 72.0927 61.2355 72.0927 56.6152 76.7096 56.6152 82.3848 56.6152 87.447 60.2936 91.6426 65.116 92.4988ZM34.25 113.073 99.366 113.073 99.366 61.6499 34.25 61.6499 34.25 113.073ZM48.1075 42.7576C48.1075 32.4005 56.533 23.975 66.8867 23.975 77.2439 23.975 85.666 32.4005 85.666 42.7576L85.666 58.2249 48.1075 58.2249 48.1075 42.7576ZM101.078 58.2249 89.091 58.2249 89.091 42.7576C89.091 30.5099 79.1277 20.55 66.8867 20.55 54.6424 20.55 44.6825 30.5099 44.6825 42.7576L44.6825 58.2249 32.5375 58.2249C31.5887 58.2249 30.825 58.9921 30.825 59.9374L30.825 114.785C30.825 115.731 31.5887 116.498 32.5375 116.498L101.078 116.498C102.024 116.498 102.791 115.731 102.791 114.785L102.791 59.9374C102.791 58.9921 102.024 58.2249 101.078 58.2249Z" fill="#232F3E" fill-rule="evenodd" fill-opacity="1" transform="matrix(1 0 0 1 906 1361)"/></g></g></g><rect x="1729" y="829" width="761" height="447" fill="#E2F0D9" fill-opacity="0.2"/><text fill="#6CAE3E" fill-opacity="1" font-family="Arial,Arial_MSFontService,sans-serif" font-style="normal" font-variant="normal" font-weight="400" font-stretch="normal" font-size="55" text-anchor="start" direction="ltr" writing-mode="lr-tb" unicode-bidi="normal" text-decoration="none" transform="matrix(1 0 0 1 1902.33 899)">Public subnet</text><g clip-path="url(#clip7)"><g clip-path="url(#clip8)"><g clip-path="url(#clip9)"><path d="M0 0 137 0 137 137 0 137Z" fill="#6CAE3E" fill-rule="evenodd" fill-opacity="1" transform="matrix(1 0 0 1.0073 1728 830)"/><path d="M66.9107 75.5177C70.6988 75.5177 73.7812 78.5968 73.7812 82.3848 73.7812 86.1729 70.6988 89.2554 66.9107 89.2554 63.1227 89.2554 60.0402 86.1729 60.0402 82.3848 60.0402 78.5968 63.1227 75.5177 66.9107 75.5177L66.9107 75.5177ZM65.116 92.4988 65.116 104.466 68.541 104.466 68.541 92.516C73.4387 91.7282 77.2062 87.5052 77.2062 82.3848 77.2062 76.7096 72.5859 72.0927 66.9107 72.0927 61.2355 72.0927 56.6152 76.7096 56.6152 82.3848 56.6152 87.447 60.2936 91.6426 65.116 92.4988ZM34.25 113.073 99.366 113.073 99.366 61.6499 34.25 61.6499 34.25 113.073ZM48.1075 42.7576C48.1075 32.4005 56.533 23.975 66.8867 23.975 77.2439 23.975 85.666 32.4005 85.666 42.7576L85.666 58.2249 48.1075 58.2249 48.1075 42.7576ZM101.078 58.2249 89.091 58.2249 89.091 42.7576C89.091 30.5099 79.1277 20.55 66.8867 20.55 54.6424 20.55 44.6825 30.5099 44.6825 42.7576L44.6825 58.2249 32.5375 58.2249C31.5887 58.2249 30.825 58.9921 30.825 59.9374L30.825 114.785C30.825 115.731 31.5887 116.498 32.5375 116.498L101.078 116.498C102.024 116.498 102.791 115.731 102.791 114.785L102.791 59.9374C102.791 58.9921 102.024 58.2249 101.078 58.2249Z" fill="#232F3E" fill-rule="evenodd" fill-opacity="1" transform="matrix(1 0 0 1.0073 1728 830)"/></g></g></g><rect x="907" y="829" width="761" height="447" fill="#E2F0D9" fill-opacity="0.2"/><text fill="#6CAE3E" fill-opacity="1" font-family="Arial,Arial_MSFontService,sans-serif" font-style="normal" font-variant="normal" font-weight="400" font-stretch="normal" font-size="55" text-anchor="start" direction="ltr" writing-mode="lr-tb" unicode-bidi="normal" text-decoration="none" transform="matrix(1 0 0 1 1080.61 899)">Public subnet</text><g clip-path="url(#clip10)"><g clip-path="url(#clip11)"><g clip-path="url(#clip12)"><path d="M0 0 137 0 137 137 0 137Z" fill="#6CAE3E" fill-rule="evenodd" fill-opacity="1" transform="matrix(1 0 0 1.0073 906 830)"/><path d="M66.9107 75.5177C70.6988 75.5177 73.7812 78.5968 73.7812 82.3848 73.7812 86.1729 70.6988 89.2554 66.9107 89.2554 63.1227 89.2554 60.0402 86.1729 60.0402 82.3848 60.0402 78.5968 63.1227 75.5177 66.9107 75.5177L66.9107 75.5177ZM65.116 92.4988 65.116 104.466 68.541 104.466 68.541 92.516C73.4387 91.7282 77.2062 87.5052 77.2062 82.3848 77.2062 76.7096 72.5859 72.0927 66.9107 72.0927 61.2355 72.0927 56.6152 76.7096 56.6152 82.3848 56.6152 87.447 60.2936 91.6426 65.116 92.4988ZM34.25 113.073 99.366 113.073 99.366 61.6499 34.25 61.6499 34.25 113.073ZM48.1075 42.7576C48.1075 32.4005 56.533 23.975 66.8867 23.975 77.2439 23.975 85.666 32.4005 85.666 42.7576L85.666 58.2249 48.1075 58.2249 48.1075 42.7576ZM101.078 58.2249 89.091 58.2249 89.091 42.7576C89.091 30.5099 79.1277 20.55 66.8867 20.55 54.6424 20.55 44.6825 30.5099 44.6825 42.7576L44.6825 58.2249 32.5375 58.2249C31.5887 58.2249 30.825 58.9921 30.825 59.9374L30.825 114.785C30.825 115.731 31.5887 116.498 32.5375 116.498L101.078 116.498C102.024 116.498 102.791 115.731 102.791 114.785L102.791 59.9374C102.791 58.9921 102.024 58.2249 101.078 58.2249Z" fill="#232F3E" fill-rule="evenodd" fill-opacity="1" transform="matrix(1 0 0 1.0073 906 830)"/></g></g></g><rect x="350.5" y="662.5" width="2250" height="1192" stroke="#70AD47" stroke-width="4.58333" stroke-linecap="butt" stroke-linejoin="miter" stroke-miterlimit="8" stroke-opacity="1" fill="none"/><text fill="#000000" fill-opacity="1" font-family="Arial,Arial_MSFontService,sans-serif" font-style="normal" font-variant="normal" font-weight="400" font-stretch="normal" font-size="55" text-anchor="start" direction="ltr" writing-mode="lr-tb" unicode-bidi="normal" text-decoration="none" transform="matrix(1 0 0 1 531.525 748)">VPC</text><rect x="893.5" y="523.5" width="789" height="1404" stroke="#00A0C8" stroke-width="4.58333" stroke-linecap="butt" stroke-linejoin="miter" stroke-miterlimit="8" stroke-dasharray="18.3333 13.75" stroke-opacity="1" fill="none"/><text fill="#000000" fill-opacity="1" font-family="Arial,Arial_MSFontService,sans-serif" font-style="normal" font-variant="normal" font-weight="400" font-stretch="normal" font-size="55" text-anchor="start" direction="ltr" writing-mode="lr-tb" unicode-bidi="normal" text-decoration="none" transform="matrix(1 0 0 1 1065.54 609)">Availability Zone 1</text><rect x="1715.5" y="523.5" width="790" height="1404" stroke="#00A0C8" stroke-width="4.58333" stroke-linecap="butt" stroke-linejoin="miter" stroke-miterlimit="8" stroke-dasharray="18.3333 13.75" stroke-opacity="1" fill="none"/><text fill="#000000" fill-opacity="1" font-family="Arial,Arial_MSFontService,sans-serif" font-style="normal" font-variant="normal" font-weight="400" font-stretch="normal" font-size="55" text-anchor="start" direction="ltr" writing-mode="lr-tb" unicode-bidi="normal" text-decoration="none" transform="matrix(1 0 0 1 1888.08 609)">Availability Zone 2</text><text fill="#000000" fill-opacity="1" font-family="Arial,Arial_MSFontService,sans-serif" font-style="normal" font-variant="normal" font-weight="400" font-stretch="normal" font-size="50" text-anchor="start" direction="ltr" writing-mode="lr-tb" unicode-bidi="normal" text-decoration="none" transform="matrix(1 0 0 1 1135.92 1192)">NAT gateway</text><text fill="#000000" fill-opacity="1" font-family="Arial,Arial_MSFontService,sans-serif" font-style="normal" font-variant="normal" font-weight="400" font-stretch="normal" font-size="50" text-anchor="start" direction="ltr" writing-mode="lr-tb" unicode-bidi="normal" text-decoration="none" transform="matrix(1 0 0 1 1972.85 1192)">NAT gateway</text><g clip-path="url(#clip13)"><g clip-path="url(#clip14)"><g clip-path="url(#clip15)"><path d="M81.5002 158.11C39.1895 158.11 4.89001 123.811 4.89001 81.5002 4.89001 39.1895 39.1895 4.89001 81.5002 4.89001 123.811 4.89001 158.11 39.1895 158.11 81.5002 158.074 123.796 123.796 158.074 81.5002 158.11ZM81.5002 11.41C42.7904 11.41 11.41 42.7904 11.41 81.5002 11.41 120.21 42.7904 151.59 81.5002 151.59 120.21 151.59 151.59 120.21 151.59 81.5002 151.554 42.8053 120.195 11.446 81.5002 11.41Z" fill="#A166FF" fill-rule="nonzero" fill-opacity="1" transform="matrix(1 0 0 1.00613 1206 964)"/><path d="M90.6608 124.5 63.7983 124.5 63.7983 117.98 87.4008 117.98 87.4008 51.1495 63.7983 51.1495 63.7983 44.6295 90.6608 44.6295C92.4612 44.6295 93.9208 46.089 93.9208 47.8895L93.9208 121.24C93.9208 123.04 92.4612 124.5 90.6608 124.5Z" fill="#A166FF" fill-rule="nonzero" fill-opacity="1" transform="matrix(1 0 0 1.00613 1206 964)"/><path d="M63.1789 81.3046 121.24 81.3046 121.24 87.8246 63.1789 87.8246Z" fill="#A166FF" fill-rule="nonzero" fill-opacity="1" transform="matrix(1 0 0 1.00613 1206 964)"/><path d="M41.7607 63.3745C41.275 63.3716 40.796 63.2603 40.3589 63.0485 39.2267 62.5093 38.5042 61.3685 38.5007 60.1145L38.5007 35.6645C38.5042 34.4105 39.2267 33.2697 40.3589 32.7305 41.4899 32.1843 42.8342 32.3365 43.8145 33.1217L59.0713 45.3467C59.8496 45.9617 60.3055 46.8976 60.3101 47.8895 60.3055 48.8814 59.8496 49.8173 59.0713 50.4323L43.8145 62.6573C43.2322 63.1245 42.5072 63.3777 41.7607 63.3745ZM45.0207 42.4453 45.0207 53.3337 51.8341 47.8895Z" fill="#A166FF" fill-rule="nonzero" fill-opacity="1" transform="matrix(1 0 0 1.00613 1206 964)"/><path d="M41.7607 100.05C41.275 100.047 40.796 99.9353 40.3589 99.7236 39.2267 99.1844 38.5042 98.0436 38.5007 96.7896L38.5007 72.3395C38.5042 71.0855 39.2267 69.9447 40.3589 69.4055 41.4899 68.8594 42.8342 69.0115 43.8145 69.7967L59.0713 82.0218C59.8496 82.6367 60.3055 83.5726 60.3101 84.5646 60.3055 85.5565 59.8496 86.4924 59.0713 87.1074L43.8145 99.3324C43.2322 99.7996 42.5072 100.053 41.7607 100.05ZM45.0207 79.1203 45.0207 90.0088 51.8341 84.5646Z" fill="#A166FF" fill-rule="nonzero" fill-opacity="1" transform="matrix(1 0 0 1.00613 1206 964)"/><path d="M124.271 103.081C123.848 103.082 123.428 103.005 123.033 102.853 121.804 102.349 121.005 101.149 121.011 99.8214L121.011 69.2751C121.001 67.4747 122.452 66.0067 124.252 65.9962 125.128 65.9911 125.969 66.3387 126.586 66.9605L141.875 82.2499C143.139 83.5215 143.139 85.575 141.875 86.8466L126.586 102.136C125.971 102.746 125.138 103.086 124.271 103.081ZM127.531 77.0013 127.531 91.8344 134.964 84.4342Z" fill="#A166FF" fill-rule="nonzero" fill-opacity="1" transform="matrix(1 0 0 1.00613 1206 964)"/><path d="M41.7607 133.66C41.275 133.657 40.796 133.546 40.3589 133.334 39.2267 132.795 38.5042 131.654 38.5007 130.4L38.5007 105.95C38.4945 104.15 39.9491 102.685 41.7495 102.679 42.5012 102.677 43.2307 102.934 43.8145 103.407L59.0713 115.632C60.4757 116.759 60.7008 118.811 59.5741 120.215 59.4253 120.401 59.2567 120.569 59.0713 120.718L43.8145 132.943C43.2322 133.41 42.5072 133.663 41.7607 133.66ZM45.0207 112.731 45.0207 123.619 51.8341 118.175Z" fill="#A166FF" fill-rule="nonzero" fill-opacity="1" transform="matrix(1 0 0 1.00613 1206 964)"/><path d="M462.921 665.041-29.3401 665.041-47.1071 885.092-498.781 885.092-521.601-1154.04 462.921-1154.04 462.921 665.041Z" stroke="#A166FF" stroke-width="9.78002" stroke-linecap="butt" stroke-linejoin="miter" stroke-miterlimit="10" stroke-opacity="1" fill="none" fill-rule="nonzero" transform="matrix(1 0 0 1.00613 1206 964)"/></g></g></g><g clip-path="url(#clip16)"><g clip-path="url(#clip17)"><g clip-path="url(#clip18)"><path d="M2118 1123.08C2075.43 1123.08 2040.92 1088.57 2040.92 1046 2040.92 1003.43 2075.43 968.92 2118 968.92 2160.57 968.92 2195.08 1003.43 2195.08 1046 2195.04 1088.55 2160.56 1123.04 2118 1123.08ZM2118 975.48C2079.05 975.48 2047.48 1007.05 2047.48 1046 2047.48 1084.95 2079.05 1116.52 2118 1116.52 2156.95 1116.52 2188.52 1084.95 2188.52 1046 2188.48 1007.07 2156.93 975.516 2118 975.48Z" fill="#A166FF" fill-rule="nonzero" fill-opacity="1"/><path d="M2127.22 1089.26 2100.19 1089.26 2100.19 1082.7 2123.94 1082.7 2123.94 1015.46 2100.19 1015.46 2100.19 1008.9 2127.22 1008.9C2129.03 1008.9 2130.5 1010.37 2130.5 1012.18L2130.5 1085.98C2130.5 1087.79 2129.03 1089.26 2127.22 1089.26Z" fill="#A166FF" fill-rule="nonzero" fill-opacity="1"/><path d="M2099.57 1045.8 2157.98 1045.8 2157.98 1052.36 2099.57 1052.36Z" fill="#A166FF" fill-rule="nonzero" fill-opacity="1"/><path d="M2078.02 1027.76C2077.53 1027.76 2077.05 1027.65 2076.61 1027.44 2075.47 1026.89 2074.74 1025.74 2074.74 1024.48L2074.74 999.883C2074.74 998.621 2075.47 997.474 2076.61 996.931 2077.74 996.382 2079.1 996.535 2080.08 997.325L2095.43 1009.62C2096.22 1010.24 2096.68 1011.19 2096.68 1012.18 2096.68 1013.18 2096.22 1014.12 2095.43 1014.74L2080.08 1027.04C2079.5 1027.51 2078.77 1027.77 2078.02 1027.76ZM2081.3 1006.71 2081.3 1017.66 2088.15 1012.18Z" fill="#A166FF" fill-rule="nonzero" fill-opacity="1"/><path d="M2078.02 1064.66C2077.53 1064.66 2077.05 1064.55 2076.61 1064.34 2075.47 1063.79 2074.74 1062.64 2074.74 1061.38L2074.74 1036.78C2074.74 1035.52 2075.47 1034.37 2076.61 1033.83 2077.74 1033.28 2079.1 1033.43 2080.08 1034.22L2095.43 1046.52C2096.22 1047.14 2096.68 1048.09 2096.68 1049.08 2096.68 1050.08 2096.22 1051.02 2095.43 1051.64L2080.08 1063.94C2079.5 1064.41 2078.77 1064.67 2078.02 1064.66ZM2081.3 1043.61 2081.3 1054.56 2088.15 1049.08Z" fill="#A166FF" fill-rule="nonzero" fill-opacity="1"/><path d="M2161.03 1067.71C2160.61 1067.71 2160.19 1067.64 2159.79 1067.48 2158.55 1066.98 2157.75 1065.77 2157.75 1064.43L2157.75 1033.7C2157.74 1031.89 2159.2 1030.41 2161.01 1030.4 2161.9 1030.4 2162.74 1030.75 2163.36 1031.37L2178.75 1046.75C2180.02 1048.03 2180.02 1050.1 2178.75 1051.38L2163.36 1066.76C2162.74 1067.38 2161.91 1067.72 2161.03 1067.71ZM2164.31 1041.47 2164.31 1056.4 2171.79 1048.95Z" fill="#A166FF" fill-rule="nonzero" fill-opacity="1"/><path d="M2078.02 1098.48C2077.53 1098.48 2077.05 1098.36 2076.61 1098.15 2075.47 1097.61 2074.74 1096.46 2074.74 1095.2L2074.74 1070.6C2074.73 1068.79 2076.19 1067.31 2078.01 1067.31 2078.76 1067.31 2079.5 1067.56 2080.08 1068.04L2095.43 1080.34C2096.85 1081.48 2097.07 1083.54 2095.94 1084.95 2095.79 1085.14 2095.62 1085.31 2095.43 1085.46L2080.08 1097.76C2079.5 1098.23 2078.77 1098.48 2078.02 1098.48ZM2081.3 1077.42 2081.3 1088.38 2088.15 1082.9Z" fill="#A166FF" fill-rule="nonzero" fill-opacity="1"/><path d="M2501.76 1633.12 2006.48 1633.12 1988.6 1854.52 1534.16 1854.52 1511.2-197.12 2501.76-197.12 2501.76 1633.12Z" stroke="#A166FF" stroke-width="9.84" stroke-linecap="butt" stroke-linejoin="miter" stroke-miterlimit="10" stroke-opacity="1" fill="none" fill-rule="nonzero"/></g></g></g><g clip-path="url(#clip19)"><g clip-path="url(#clip20)"><g clip-path="url(#clip21)"><path d="M0 0 137 0 137 137 0 137Z" fill="#6CAE3E" fill-rule="evenodd" fill-opacity="1" transform="matrix(1.0073 0 0 1 350 662)"/><path d="M99.3009 95.8827 39.3429 95.8177C31.2394 95.8108 24.5024 89.4917 24.0161 81.4293 23.9887 81.008 23.975 80.5764 23.975 80.1346 23.975 69.524 31.1366 66.0579 35.4042 64.9345 36.2262 64.7187 36.7673 63.931 36.6714 63.085 36.5652 62.1602 36.507 61.2218 36.507 60.2662 36.507 51.827 42.1548 42.7508 49.3713 39.6032 52.6045 38.1887 55.5945 37.627 58.3037 37.627 66.0202 37.627 71.4694 42.1788 73.8463 44.638 76.4767 47.354 78.5249 50.8201 79.9394 54.9438 80.1449 55.55 80.6758 55.9884 81.3094 56.0809 81.919 56.1733 82.5732 55.9062 82.95 55.3856 84.9639 52.5737 88.2484 51.3133 91.3069 52.1935 95.1532 53.2929 97.6672 57.2899 98.0234 62.7014 97.8795 63.6227 98.4994 64.4892 99.4173 64.6536 103.51 65.3797 113.025 68.3526 113.025 80.2819 113.025 94.4922 99.7153 95.8382 99.3009 95.8827ZM101.359 61.5609C100.623 55.0294 97.2699 50.3337 92.2488 48.9021 88.7039 47.8883 84.9776 48.7891 82.1622 51.2037 80.6689 47.7307 78.703 44.7304 76.3089 42.2576 68.5787 34.2671 57.9954 32.0991 47.9979 36.4625 39.4936 40.1752 33.082 50.4091 33.082 60.2662 33.082 60.8622 33.1026 61.4547 33.1403 62.0404 28.4925 63.6124 20.55 68.0718 20.55 80.1346 20.55 80.6552 20.5637 81.1587 20.5979 81.645 21.1939 91.5022 29.431 99.2324 39.3395 99.2427L99.4413 99.3009C99.6126 99.2872 116.45 97.6774 116.45 80.2819 116.45 66.7943 106.185 62.7254 101.359 61.5609ZM58.2249 85.6078 75.3499 85.6078 75.3499 71.9078 58.2249 71.9078 58.2249 85.6078ZM61.6499 66.7703C61.6499 63.9378 63.9549 61.6328 66.7874 61.6328 69.6199 61.6328 71.9249 63.9378 71.9249 66.7703L71.9249 68.4828 61.6499 68.4828 61.6499 66.7703ZM77.0624 68.4828 75.3499 68.4828 75.3499 66.7703C75.3499 62.0506 71.5105 58.2078 66.7874 58.2078 62.0643 58.2078 58.2249 62.0506 58.2249 66.7703L58.2249 68.4828 56.5124 68.4828C55.5637 68.4828 54.7999 69.25 54.7999 70.1953L54.7999 87.3203C54.7999 88.2655 55.5637 89.0328 56.5124 89.0328L77.0624 89.0328C78.0077 89.0328 78.7749 88.2655 78.7749 87.3203L78.7749 70.1953C78.7749 69.25 78.0077 68.4828 77.0624 68.4828Z" fill="#232F3E" fill-rule="evenodd" fill-opacity="1" transform="matrix(1.0073 0 0 1 350 662)"/></g></g></g><text fill="#6CAE3E" fill-opacity="1" font-family="Arial,Arial_MSFontService,sans-serif" font-style="normal" font-variant="normal" font-weight="400" font-stretch="normal" font-size="55" text-anchor="start" direction="ltr" writing-mode="lr-tb" unicode-bidi="normal" text-decoration="none" transform="matrix(1 0 0 1 1080.61 1429)">Private </text><text fill="#6CAE3E" fill-opacity="1" font-family="Arial,Arial_MSFontService,sans-serif" font-style="normal" font-variant="normal" font-weight="400" font-stretch="normal" font-size="55" text-anchor="start" direction="ltr" writing-mode="lr-tb" unicode-bidi="normal" text-decoration="none" transform="matrix(1 0 0 1 1266.81 1429)">subnet</text><text fill="#6CAE3E" fill-opacity="1" font-family="Arial,Arial_MSFontService,sans-serif" font-style="normal" font-variant="normal" font-weight="400" font-stretch="normal" font-size="55" text-anchor="start" direction="ltr" writing-mode="lr-tb" unicode-bidi="normal" text-decoration="none" transform="matrix(1 0 0 1 1901.17 1429)">Private </text><text fill="#6CAE3E" fill-opacity="1" font-family="Arial,Arial_MSFontService,sans-serif" font-style="normal" font-variant="normal" font-weight="400" font-stretch="normal" font-size="55" text-anchor="start" direction="ltr" writing-mode="lr-tb" unicode-bidi="normal" text-decoration="none" transform="matrix(1 0 0 1 2087.37 1429)">subnet</text><g clip-path="url(#clip22)"><g clip-path="url(#clip23)"><g clip-path="url(#clip24)"><path d="M1268.84 1644.49 1304.04 1644.49 1304.04 1609.29 1268.84 1609.29 1268.84 1644.49ZM1264.97 1650.61 1264.97 1656.95 1271.85 1656.95 1271.85 1651.37 1276.99 1651.37 1276.99 1656.95 1283.87 1656.95 1283.87 1651.37 1289.01 1651.37 1289.01 1656.95 1295.89 1656.95 1295.89 1651.37 1301.03 1651.37 1301.03 1656.95 1307.91 1656.95 1307.91 1650.61C1308.85 1650.08 1309.63 1649.31 1310.16 1648.36L1316.49 1648.36 1316.49 1641.49 1310.91 1641.49 1310.91 1636.34 1316.49 1636.34 1316.49 1629.47 1310.91 1629.47 1310.91 1624.32 1316.49 1624.32 1316.49 1617.44 1310.91 1617.44 1310.91 1612.3 1316.49 1612.3 1316.49 1605.42 1310.16 1605.42C1309.63 1604.48 1308.85 1603.7 1307.91 1603.17L1307.91 1596.84 1301.03 1596.84 1301.03 1602.42 1295.89 1602.42 1295.89 1596.84 1289.01 1596.84 1289.01 1602.42 1283.87 1602.42 1283.87 1596.84 1276.99 1596.84 1276.99 1602.42 1271.85 1602.42 1271.85 1596.84 1264.97 1596.84 1264.97 1603.17C1264.02 1603.7 1263.25 1604.48 1262.72 1605.42L1256.39 1605.42 1256.39 1612.3 1261.97 1612.3 1261.97 1617.44 1256.39 1617.44 1256.39 1624.32 1261.97 1624.32 1261.97 1629.47 1256.39 1629.47 1256.39 1636.34 1261.97 1636.34 1261.97 1641.49 1256.39 1641.49 1256.39 1648.36 1262.72 1648.36C1263.25 1649.31 1264.02 1650.08 1264.97 1650.61ZM1340.1 1659.95 1346.98 1659.95 1346.98 1593.84 1340.1 1593.84 1340.1 1659.95ZM1322.07 1659.95 1328.94 1659.95 1328.94 1593.84 1322.07 1593.84 1322.07 1659.95ZM1243.93 1659.95 1250.81 1659.95 1250.81 1593.84 1243.93 1593.84 1243.93 1659.95ZM1225.9 1659.95 1232.78 1659.95 1232.78 1593.84 1225.9 1593.84 1225.9 1659.95ZM1217.75 1668.53 1355.13 1668.53 1355.13 1585.25 1217.75 1585.25 1217.75 1668.53ZM1358.56 1578.38 1214.31 1578.38C1212.42 1578.38 1210.88 1579.91 1210.88 1581.81L1210.88 1671.97C1210.88 1673.87 1212.42 1675.41 1214.31 1675.41L1358.56 1675.41C1360.46 1675.41 1362 1673.87 1362 1671.97L1362 1581.81C1362 1579.91 1360.46 1578.38 1358.56 1578.38Z" fill="#FF9900" fill-rule="evenodd" fill-opacity="1"/></g></g></g><g clip-path="url(#clip25)"><g clip-path="url(#clip26)"><g clip-path="url(#clip27)"><path d="M2100.84 1646.49 2136.04 1646.49 2136.04 1611.29 2100.84 1611.29 2100.84 1646.49ZM2096.97 1652.61 2096.97 1658.95 2103.85 1658.95 2103.85 1653.37 2108.99 1653.37 2108.99 1658.95 2115.87 1658.95 2115.87 1653.37 2121.01 1653.37 2121.01 1658.95 2127.89 1658.95 2127.89 1653.37 2133.03 1653.37 2133.03 1658.95 2139.91 1658.95 2139.91 1652.61C2140.85 1652.08 2141.63 1651.31 2142.16 1650.36L2148.49 1650.36 2148.49 1643.49 2142.91 1643.49 2142.91 1638.34 2148.49 1638.34 2148.49 1631.47 2142.91 1631.47 2142.91 1626.32 2148.49 1626.32 2148.49 1619.44 2142.91 1619.44 2142.91 1614.3 2148.49 1614.3 2148.49 1607.42 2142.16 1607.42C2141.63 1606.48 2140.85 1605.7 2139.91 1605.17L2139.91 1598.84 2133.03 1598.84 2133.03 1604.42 2127.89 1604.42 2127.89 1598.84 2121.01 1598.84 2121.01 1604.42 2115.87 1604.42 2115.87 1598.84 2108.99 1598.84 2108.99 1604.42 2103.85 1604.42 2103.85 1598.84 2096.97 1598.84 2096.97 1605.17C2096.02 1605.7 2095.25 1606.48 2094.72 1607.42L2088.39 1607.42 2088.39 1614.3 2093.97 1614.3 2093.97 1619.44 2088.39 1619.44 2088.39 1626.32 2093.97 1626.32 2093.97 1631.47 2088.39 1631.47 2088.39 1638.34 2093.97 1638.34 2093.97 1643.49 2088.39 1643.49 2088.39 1650.36 2094.72 1650.36C2095.25 1651.31 2096.02 1652.08 2096.97 1652.61ZM2172.1 1661.95 2178.98 1661.95 2178.98 1595.84 2172.1 1595.84 2172.1 1661.95ZM2154.07 1661.95 2160.94 1661.95 2160.94 1595.84 2154.07 1595.84 2154.07 1661.95ZM2075.93 1661.95 2082.8 1661.95 2082.8 1595.84 2075.93 1595.84 2075.93 1661.95ZM2057.9 1661.95 2064.78 1661.95 2064.78 1595.84 2057.9 1595.84 2057.9 1661.95ZM2049.75 1670.53 2187.13 1670.53 2187.13 1587.25 2049.75 1587.25 2049.75 1670.53ZM2190.56 1580.37 2046.31 1580.37C2044.42 1580.37 2042.88 1581.91 2042.88 1583.81L2042.88 1673.97C2042.88 1675.87 2044.42 1677.41 2046.31 1677.41L2190.56 1677.41C2192.46 1677.41 2194 1675.87 2194 1673.97L2194 1583.81C2194 1581.91 2192.46 1580.37 2190.56 1580.37Z" fill="#FF9900" fill-rule="evenodd" fill-opacity="1"/></g></g></g><text fill="#000000" fill-opacity="1" font-family="Arial,Arial_MSFontService,sans-serif" font-style="normal" font-variant="normal" font-weight="400" font-stretch="normal" font-size="50" text-anchor="start" direction="ltr" writing-mode="lr-tb" unicode-bidi="normal" text-decoration="none" transform="matrix(1 0 0 1 1177.3 1744)">Container</text><text fill="#000000" fill-opacity="1" font-family="Arial,Arial_MSFontService,sans-serif" font-style="normal" font-variant="normal" font-weight="400" font-stretch="normal" font-size="50" text-anchor="start" direction="ltr" writing-mode="lr-tb" unicode-bidi="normal" text-decoration="none" transform="matrix(1 0 0 1 2014.96 1744)">Container</text><text fill="#000000" fill-opacity="1" font-family="Arial,Arial_MSFontService,sans-serif" font-style="normal" font-variant="normal" font-weight="400" font-stretch="normal" font-size="50" text-anchor="start" direction="ltr" writing-mode="lr-tb" unicode-bidi="normal" text-decoration="none" transform="matrix(1 0 0 1 417.101 1208)">Internet gateway</text><g clip-path="url(#clip28)"><g clip-path="url(#clip29)"><g clip-path="url(#clip30)"><path d="M636.402 1093.59 631.097 1093.59 631.097 1030.99C631.097 1029.59 630.279 1028.33 629.011 1027.76L628.685 1027.61C621.57 1024.4 614.206 1021.07 603.624 1021.07 592.563 1021.07 584.446 1024.65 576.42 1028.63 575.216 1029.23 574.455 1030.46 574.455 1031.8L574.455 1093.59 569.273 1093.59 569.273 1026.77C577.894 1019.76 590.322 1015.77 603.659 1015.77 616.059 1015.77 627.881 1019.3 636.402 1025.5L636.402 1093.59ZM603.659 1008.68C587.988 1008.68 573.311 1013.71 563.387 1022.48 562.626 1023.15 562.19 1024.11 562.19 1025.13L562.19 1097.13C562.19 1099.09 563.773 1100.67 565.732 1100.67L577.997 1100.67C579.955 1100.67 581.538 1099.09 581.538 1097.13L581.538 1034.01C588.335 1030.73 594.922 1028.16 603.624 1028.16 611.894 1028.16 617.908 1030.55 624.013 1033.28L624.013 1097.13C624.013 1099.09 625.596 1100.67 627.555 1100.67L639.944 1100.67C641.902 1100.67 643.485 1099.09 643.485 1097.13L643.485 1023.75C643.485 1022.67 642.993 1021.65 642.147 1020.97 632.322 1013.16 618.294 1008.68 603.659 1008.68ZM602.838 1124.51C563.872 1124.51 532.164 1092.81 532.164 1053.84 532.164 1014.87 563.872 983.166 602.838 983.166 641.807 983.166 673.512 1014.87 673.512 1053.84 673.512 1092.81 641.807 1124.51 602.838 1124.51ZM602.838 976.083C559.962 976.083 525.081 1010.96 525.081 1053.84 525.081 1096.72 559.962 1131.59 602.838 1131.59 645.713 1131.59 680.595 1096.72 680.595 1053.84 680.595 1010.96 645.713 976.083 602.838 976.083Z" fill="#A166FF" fill-rule="evenodd" fill-opacity="1"/></g></g></g></g></svg>